<svg xmlns="http://www.w3.org/2000/svg" xmlns:xlink="http://www.w3.org/1999/xlink" width="500" zoomAndPan="magnify" viewBox="0 0 375 374.999991" height="500" preserveAspectRatio="xMidYMid meet" version="1.0">
  <defs>
    <g/>
    <clipPath id="0a7f7a938f">
      <path d="M 50.839844 162.75 L 102.589844 162.75 L 102.589844 214.5 L 50.839844 214.5 Z M 50.839844 162.75 " clip-rule="nonzero"/>
    </clipPath>
    <clipPath id="f76af577c3">
      <path d="M 76.714844 162.75 C 62.425781 162.75 50.839844 174.335938 50.839844 188.625 C 50.839844 202.914062 62.425781 214.5 76.714844 214.5 C 91.003906 214.5 102.589844 202.914062 102.589844 188.625 C 102.589844 174.335938 91.003906 162.75 76.714844 162.75 Z M 76.714844 162.75 " clip-rule="nonzero"/>
    </clipPath>
    <clipPath id="95d50a0972">
      <path d="M 75.078125 182.582031 L 203.199219 182.582031 L 203.199219 208.066406 L 75.078125 208.066406 Z M 75.078125 182.582031 " clip-rule="nonzero"/>
    </clipPath>
    <clipPath id="b0c05271f3">
      <path d="M 87.820312 182.582031 L 190.367188 182.582031 C 193.746094 182.582031 196.988281 183.925781 199.375 186.3125 C 201.765625 188.703125 203.109375 191.945312 203.109375 195.324219 C 203.109375 198.703125 201.765625 201.945312 199.375 204.335938 C 196.988281 206.722656 193.746094 208.066406 190.367188 208.066406 L 87.820312 208.066406 C 84.4375 208.066406 81.199219 206.722656 78.808594 204.335938 C 76.417969 201.945312 75.078125 198.703125 75.078125 195.324219 C 75.078125 191.945312 76.417969 188.703125 78.808594 186.3125 C 81.199219 183.925781 84.4375 182.582031 87.820312 182.582031 Z M 87.820312 182.582031 " clip-rule="nonzero"/>
    </clipPath>
    <clipPath id="5f432cf704">
      <path d="M 159 172 L 194 172 L 194 183.042969 L 159 183.042969 Z M 159 172 " clip-rule="nonzero"/>
    </clipPath>

    <!-- 单一遮罩：统一挖空 O + 区域2 的四段形状 -->
    <mask id="cut-all" maskUnits="userSpaceOnUse">
      <rect x="0" y="0" width="375" height="375" fill="white"/>
      <!-- O -->
      <g fill="black" transform="translate(58.805307, 204.749987)">
        <path d="M 33.203125 -16.109375 C 33.203125 -13.628906 32.894531 -11.375 32.28125 -9.34375 C 31.664062 -7.320312 30.726562 -5.578125 29.46875 -4.109375 C 28.21875 -2.640625 26.632812 -1.515625 24.71875 -0.734375 C 22.800781 0.046875 20.53125 0.4375 17.90625 0.4375 C 15.28125 0.4375 13.007812 0.046875 11.09375 -0.734375 C 9.175781 -1.515625 7.585938 -2.640625 6.328125 -4.109375 C 5.078125 -5.578125 4.144531 -7.328125 3.53125 -9.359375 C 2.914062 -11.398438 2.609375 -13.664062 2.609375 -16.15625 C 2.609375 -19.476562 3.15625 -22.375 4.25 -24.84375 C 5.34375 -27.3125 7.023438 -29.222656 9.296875 -30.578125 C 11.566406 -31.941406 14.453125 -32.625 17.953125 -32.625 C 21.441406 -32.625 24.304688 -31.941406 26.546875 -30.578125 C 28.796875 -29.222656 30.46875 -27.304688 31.5625 -24.828125 C 32.65625 -22.347656 33.203125 -19.441406 33.203125 -16.109375 Z M 9.75 -16.109375 C 9.75 -13.867188 10.03125 -11.9375 10.59375 -10.3125 C 11.164062 -8.695312 12.050781 -7.453125 13.25 -6.578125 C 14.445312 -5.710938 16 -5.28125 17.90625 -5.28125 C 19.84375 -5.28125 21.410156 -5.710938 22.609375 -6.578125 C 23.804688 -7.453125 24.679688 -8.695312 25.234375 -10.3125 C 25.785156 -11.9375 26.0625 -13.867188 26.0625 -16.109375 C 26.0625 -19.472656 25.429688 -22.117188 24.171875 -24.046875 C 22.910156 -25.984375 20.835938 -26.953125 17.953125 -26.953125 C 16.035156 -26.953125 14.472656 -26.515625 13.265625 -25.640625 C 12.054688 -24.773438 11.164062 -23.53125 10.59375 -21.90625 C 10.03125 -20.289062 9.75 -18.359375 9.75 -16.109375 Z"/>
      </g>
      <!-- 区域2 的四段挖空 -->
      <g fill="black" transform="translate(155.36787, 204.749987)">
        <path d="M 17.640625 0 L 9.90625 -25.203125 L 9.71875 -25.203125 C 9.738281 -24.597656 9.78125 -23.691406 9.84375 -22.484375 C 9.914062 -21.273438 9.976562 -19.988281 10.03125 -18.625 C 10.09375 -17.269531 10.125 -16.039062 10.125 -14.9375 L 10.125 0 L 4.046875 0 L 4.046875 -32.125 L 13.3125 -32.125 L 20.921875 -7.5625 L 21.046875 -7.5625 L 29.109375 -32.125 L 38.390625 -32.125 L 38.390625 0 L 32.03125 0 L 32.03125 -15.203125 C 32.03125 -16.210938 32.046875 -17.375 32.078125 -18.6875 C 32.117188 -20.007812 32.171875 -21.269531 32.234375 -22.46875 C 32.296875 -23.664062 32.335938 -24.5625 32.359375 -25.15625 L 32.171875 -25.15625 L 23.890625 0 Z"/>
      </g>
      <g fill="black" transform="translate(100.038879, 205.074407)">
        <path d="M 7.953125 -17.84375 C 10.253906 -17.84375 11.929688 -17.347656 12.984375 -16.359375 C 14.046875 -15.367188 14.578125 -14.007812 14.578125 -12.28125 C 14.578125 -11.5 14.457031 -10.75 14.21875 -10.03125 C 13.988281 -9.320312 13.601562 -8.691406 13.0625 -8.140625 C 12.53125 -7.585938 11.820312 -7.148438 10.9375 -6.828125 C 10.050781 -6.503906 8.957031 -6.34375 7.65625 -6.34375 L 6.03125 -6.34375 L 6.03125 0 L 2.25 0 L 2.25 -17.84375 Z M 7.75 -14.75 L 6.03125 -14.75 L 6.03125 -9.453125 L 7.28125 -9.453125 C 7.988281 -9.453125 8.601562 -9.546875 9.125 -9.734375 C 9.644531 -9.921875 10.046875 -10.210938 10.328125 -10.609375 C 10.609375 -11.003906 10.75 -11.515625 10.75 -12.140625 C 10.75 -13.023438 10.503906 -13.679688 10.015625 -14.109375 C 9.535156 -14.535156 8.78125 -14.75 7.75 -14.75 Z"/>
      </g>
      <g fill="black" transform="translate(115.734667, 205.074407)">
        <path d="M 12.53125 0 L 2.25 0 L 2.25 -17.84375 L 12.53125 -17.84375 L 12.53125 -14.75 L 6.03125 -14.75 L 6.03125 -10.828125 L 12.078125 -10.828125 L 12.078125 -7.734375 L 6.03125 -7.734375 L 6.03125 -3.125 L 12.53125 -3.125 Z"/>
      </g>
      <g fill="black" transform="translate(129.733949, 205.074407)">
        <path d="M 18.078125 0 L 13.265625 0 L 5.5 -13.5 L 5.390625 -13.5 C 5.421875 -12.9375 5.445312 -12.367188 5.46875 -11.796875 C 5.5 -11.234375 5.523438 -10.664062 5.546875 -10.09375 C 5.578125 -9.53125 5.601562 -8.96875 5.625 -8.40625 L 5.625 0 L 2.25 0 L 2.25 -17.84375 L 7.015625 -17.84375 L 14.765625 -4.484375 L 14.859375 -4.484375 C 14.835938 -5.035156 14.816406 -5.582031 14.796875 -6.125 C 14.773438 -6.675781 14.753906 -7.222656 14.734375 -7.765625 C 14.710938 -8.304688 14.691406 -8.851562 14.671875 -9.40625 L 14.671875 -17.84375 L 18.078125 -17.84375 Z"/>
      </g>
    </mask>
  </defs>

  <!-- 两块蓝色底统一套用 cut-all 遮罩 -->
  <g mask="url(#cut-all)">
    <!-- 区域1 -->
    <g clip-path="url(#0a7f7a938f)">
      <g clip-path="url(#f76af577c3)">
        <path fill="#0A66C2" d="M 50.839844 162.75 L 102.589844 162.75 L 102.589844 214.5 L 50.839844 214.5 Z M 50.839844 162.75 " fill-opacity="1" fill-rule="nonzero"/>
      </g>
    </g>
    <!-- 区域2 -->
    <g clip-path="url(#95d50a0972)">
      <g clip-path="url(#b0c05271f3)">
        <path fill="#0A66C2" d="M 75.078125 182.582031 L 203.097656 182.582031 L 203.097656 208.066406 L 75.078125 208.066406 Z M 75.078125 182.582031 " fill-opacity="1" fill-rule="nonzero"/>
      </g>
    </g>
  </g>

  <!-- 右侧蓝色文字（全部保留） -->
  <g fill="#0A66C2" fill-opacity="1">
    <g transform="translate(203.108955, 205.074407)"><g>
      <path d="M 18.4375 -8.953125 C 18.4375 -7.578125 18.265625 -6.320312 17.921875 -5.1875 C 17.585938 -4.0625 17.070312 -3.09375 16.375 -2.28125 C 15.675781 -1.46875 14.796875 -0.84375 13.734375 -0.40625 C 12.671875 0.03125 11.410156 0.25 9.953125 0.25 C 8.492188 0.25 7.226562 0.03125 6.15625 -0.40625 C 5.09375 -0.84375 4.210938 -1.46875 3.515625 -2.28125 C 2.828125 -3.09375 2.3125 -4.0625 1.96875 -5.1875 C 1.625 -6.320312 1.453125 -7.582031 1.453125 -8.96875 C 1.453125 -10.820312 1.753906 -12.429688 2.359375 -13.796875 C 2.960938 -15.171875 3.894531 -16.234375 5.15625 -16.984375 C 6.425781 -17.742188 8.03125 -18.125 9.96875 -18.125 C 11.90625 -18.125 13.5 -17.742188 14.75 -16.984375 C 16 -16.234375 16.925781 -15.171875 17.53125 -13.796875 C 18.132812 -12.421875 18.4375 -10.804688 18.4375 -8.953125 Z M 5.421875 -8.953125 C 5.421875 -7.703125 5.578125 -6.625 5.890625 -5.71875 C 6.203125 -4.820312 6.691406 -4.132812 7.359375 -3.65625 C 8.023438 -3.175781 8.890625 -2.9375 9.953125 -2.9375 C 11.023438 -2.9375 11.894531 -3.175781 12.5625 -3.65625 C 13.226562 -4.132812 13.710938 -4.820312 14.015625 -5.71875 C 14.328125 -6.625 14.484375 -7.703125 14.484375 -8.953125 C 14.484375 -10.816406 14.128906 -12.285156 13.421875 -13.359375 C 12.722656 -14.441406 11.570312 -14.984375 9.96875 -14.984375 C 8.90625 -14.984375 8.035156 -14.738281 7.359375 -14.25 C 6.691406 -13.769531 6.203125 -13.078125 5.890625 -12.171875 C 5.578125 -11.273438 5.421875 -10.203125 5.421875 -8.953125 Z"/>
    </g></g>
  </g>
  <g fill="#0A66C2" fill-opacity="1">
    <g transform="translate(223.003306, 205.074407)"><g>
      <path d="M 7.453125 -17.84375 C 9.066406 -17.84375 10.398438 -17.644531 11.453125 -17.25 C 12.503906 -16.863281 13.285156 -16.273438 13.796875 -15.484375 C 14.316406 -14.703125 14.578125 -13.707031 14.578125 -12.5 C 14.578125 -11.6875 14.421875 -10.972656 14.109375 -10.359375 C 13.796875 -9.753906 13.390625 -9.238281 12.890625 -8.8125 C 12.390625 -8.382812 11.84375 -8.039062 11.25 -7.78125 L 16.5 0 L 12.3125 0 L 8.046875 -6.84375 L 6.03125 -6.84375 L 6.03125 0 L 2.25 0 L 2.25 -17.84375 Z M 7.171875 -14.75 L 6.03125 -14.75 L 6.03125 -9.921875 L 7.25 -9.921875 C 8.5 -9.921875 9.394531 -10.128906 9.9375 -10.546875 C 10.476562 -10.972656 10.75 -11.59375 10.75 -12.40625 C 10.75 -13.25 10.457031 -13.847656 9.875 -14.203125 C 9.300781 -14.566406 8.398438 -14.75 7.171875 -14.75 Z"/>
    </g></g>
  </g>
  <g fill="#0A66C2" fill-opacity="1">
    <g transform="translate(239.504633, 205.074407)"><g>
      <path d="M 9.125 0 L 5.34375 0 L 5.34375 -14.703125 L 0.5 -14.703125 L 0.5 -17.84375 L 13.984375 -17.84375 L 13.984375 -14.703125 L 9.125 -14.703125 Z M 9.125 0 "/>
    </g></g>
  </g>
  <g fill="#0A66C2" fill-opacity="1">
    <g transform="translate(253.979908, 205.074407)"><g>
      <path d="M 9.015625 -10.015625 L 16.09375 -10.015625 L 16.09375 -0.765625 C 15.164062 -0.460938 14.195312 -0.21875 13.1875 -0.03125 C 12.175781 0.15625 11.03125 0.25 9.75 0.25 C 7.976562 0.25 6.472656 -0.0976562 5.234375 -0.796875 C 3.992188 -1.503906 3.050781 -2.539062 2.40625 -3.90625 C 1.769531 -5.269531 1.453125 -6.953125 1.453125 -8.953125 C 1.453125 -10.816406 1.8125 -12.429688 2.53125 -13.796875 C 3.25 -15.171875 4.300781 -16.234375 5.6875 -16.984375 C 7.082031 -17.734375 8.78125 -18.109375 10.78125 -18.109375 C 11.71875 -18.109375 12.644531 -18.003906 13.5625 -17.796875 C 14.488281 -17.597656 15.328125 -17.332031 16.078125 -17 L 14.8125 -13.984375 C 14.269531 -14.253906 13.648438 -14.484375 12.953125 -14.671875 C 12.253906 -14.859375 11.519531 -14.953125 10.75 -14.953125 C 9.65625 -14.953125 8.703125 -14.695312 7.890625 -14.1875 C 7.078125 -13.6875 6.445312 -12.984375 6 -12.078125 C 5.5625 -11.171875 5.34375 -10.101562 5.34375 -8.875 C 5.34375 -7.707031 5.5 -6.675781 5.8125 -5.78125 C 6.132812 -4.882812 6.632812 -4.179688 7.3125 -3.671875 C 8 -3.160156 8.894531 -2.90625 10 -2.90625 C 10.53125 -2.90625 10.984375 -2.929688 11.359375 -2.984375 C 11.734375 -3.035156 12.082031 -3.09375 12.40625 -3.15625 L 12.40625 -6.875 L 9.015625 -6.875 Z"/>
    </g></g>
  </g>
  <g fill="#0A66C2" fill-opacity="1">
    <g transform="translate(272.080112, 205.074407)"><g>
      <path d="M 13.171875 0 L 11.875 -4.25 L 5.375 -4.25 L 4.078125 0 L 0 0 L 6.296875 -17.921875 L 10.921875 -17.921875 L 17.25 0 Z M 10.96875 -7.421875 L 9.6875 -11.578125 C 9.601562 -11.847656 9.492188 -12.203125 9.359375 -12.640625 C 9.222656 -13.078125 9.085938 -13.519531 8.953125 -13.96875 C 8.816406 -14.425781 8.707031 -14.820312 8.625 -15.15625 C 8.550781 -14.820312 8.441406 -14.40625 8.296875 -13.90625 C 8.148438 -13.414062 8.007812 -12.953125 7.875 -12.515625 C 7.75 -12.078125 7.660156 -11.765625 7.609375 -11.578125 L 6.328125 -7.421875 Z"/>
    </g></g>
  </g>
  <g fill="#0A66C2" fill-opacity="1">
    <g transform="translate(289.325956, 205.074407)"><g>
      <path d="M 9.015625 -10.015625 L 16.09375 -10.015625 L 16.09375 -0.765625 C 15.164062 -0.460938 14.195312 -0.21875 13.1875 -0.03125 C 12.175781 0.15625 11.03125 0.25 9.75 0.25 C 7.976562 0.25 6.472656 -0.0976562 5.234375 -0.796875 C 3.992188 -1.503906 3.050781 -2.539062 2.40625 -3.90625 C 1.769531 -5.269531 1.453125 -6.953125 1.453125 -8.953125 C 1.453125 -10.816406 1.8125 -12.429688 2.53125 -13.796875 C 3.25 -15.171875 4.300781 -16.234375 5.6875 -16.984375 C 7.082031 -17.734375 8.78125 -18.109375 10.78125 -18.109375 C 11.71875 -18.109375 12.644531 -18.003906 13.5625 -17.796875 C 14.488281 -17.597656 15.328125 -17.332031 16.078125 -17 L 14.8125 -13.984375 C 14.269531 -14.253906 13.648438 -14.484375 12.953125 -14.671875 C 12.253906 -14.859375 11.519531 -14.953125 10.75 -14.953125 C 9.65625 -14.953125 8.703125 -14.695312 7.890625 -14.1875 C 7.078125 -13.6875 6.445312 -12.984375 6 -12.078125 C 5.5625 -11.171875 5.34375 -10.101562 5.34375 -8.875 C 5.34375 -7.707031 5.5 -6.675781 5.8125 -5.78125 C 6.132812 -4.882812 6.632812 -4.179688 7.3125 -3.671875 C 8 -3.160156 8.894531 -2.90625 10 -2.90625 C 10.53125 -2.90625 10.984375 -2.929688 11.359375 -2.984375 C 11.734375 -3.035156 12.082031 -3.09375 12.40625 -3.15625 L 12.40625 -6.875 L 9.015625 -6.875 Z"/>
    </g></g>
  </g>

  <!-- 最后一段蓝色文字 -->
  <g fill="#0A66C2" fill-opacity="1">
    <g transform="translate(307.42616, 205.074407)"><g>
      <path d="M 12.53125 0 L 2.25 0 L 2.25 -17.84375 L 12.53125 -17.84375 L 12.53125 -14.75 L 6.03125 -14.75 L 6.03125 -10.828125 L 12.078125 -10.828125 L 12.078125 -7.734375 L 6.03125 -7.734375 L 6.03125 -3.125 L 12.53125 -3.125 Z"/>
    </g></g>
  </g>

  <!-- 中部带 clip 的路径 -->
  <g clip-path="url(#5f432cf704)">
    <path fill="#0A66C2" d="M 173.019531 204.96875 L 165.265625 179.691406 L 165.066406 179.691406 C 165.097656 180.292969 165.144531 181.203125 165.207031 182.417969 C 165.273438 183.628906 165.335938 184.917969 165.394531 186.285156 C 165.453125 187.648438 165.484375 188.882812 165.484375 189.984375 L 165.484375 204.96875 L 159.378906 204.96875 L 159.378906 172.75 L 168.679688 172.75 L 176.304688 197.386719 L 176.4375 197.386719 L 184.523438 172.75 L 193.828125 172.75 L 193.828125 204.96875 L 187.457031 204.96875 L 187.457031 189.71875 C 187.457031 188.703125 187.472656 187.539062 187.511719 186.21875 C 187.550781 184.894531 187.597656 183.636719 187.65625 182.4375 C 187.714844 181.238281 187.757812 180.335938 187.789062 179.734375 L 187.589844 179.734375 L 179.28125 204.96875 Z" fill-opacity="1" fill-rule="nonzero"/>
  </g>
</svg>
