<svg version="1.1" id="Layer_1" xmlns="http://www.w3.org/2000/svg" xmlns:xlink="http://www.w3.org/1999/xlink" x="0px" y="0px"
	 width="100%" viewBox="0 0 500 500" enable-background="new 0 0 500 500" xml:space="preserve">
<path fill="#FFFFFF" opacity="1.000000" stroke="none" 
	d="
M234.000000,501.000000 
	C156.000015,501.000000 78.500038,501.000000 1.000041,501.000000 
	C1.000028,334.333405 1.000028,167.666779 1.000014,1.000131 
	C167.666565,1.000087 334.333130,1.000087 500.999756,1.000044 
	C500.999847,167.666519 500.999847,334.333038 500.999939,500.999786 
	C412.166656,501.000000 323.333344,501.000000 234.000000,501.000000 
M358.109711,256.251129 
	C351.062408,256.180756 344.015106,256.110382 336.795013,255.302551 
	C330.197784,234.058777 323.470673,212.853729 317.115509,191.537796 
	C315.879120,187.390900 314.032806,186.141678 309.855621,186.281265 
	C300.549652,186.592255 291.226166,186.363815 281.909882,186.391220 
	C280.152039,186.396393 278.394653,186.568573 276.297424,186.682068 
	C276.297424,189.222488 276.304443,191.198883 276.296417,193.175201 
	C276.211151,214.128647 276.123474,235.082077 275.125549,256.261688 
	C271.853516,256.261688 268.581482,256.261688 265.312225,256.261688 
	C264.859406,252.898270 264.480072,250.115982 264.110779,247.332352 
	C256.200836,187.709213 202.970154,146.944168 143.415237,154.902542 
	C85.660645,162.620346 44.662418,215.843964 51.930977,273.666779 
	C60.488037,341.739868 128.265793,383.930450 193.488907,361.856171 
	C195.599319,361.141907 198.028809,361.095154 200.293900,361.176086 
	C203.941132,361.306305 207.574982,362.096954 211.214996,362.100555 
	C273.378998,362.162262 335.543671,362.301483 397.707001,362.084686 
	C431.914673,361.965363 456.181274,332.585175 449.869904,299.001099 
	C446.707214,282.171600 436.903046,269.926453 420.870422,261.574432 
	C420.870422,282.093018 420.870422,301.801300 420.870422,321.825256 
	C411.888245,321.825256 403.437134,321.825256 394.804932,321.481171 
	C394.646790,321.265625 394.442657,321.110657 394.057159,320.085785 
	C394.053131,299.011993 394.049103,277.938232 394.020660,256.486389 
	C394.020660,256.486389 393.969513,256.110840 394.904907,256.001160 
	C403.481232,256.001160 412.057526,256.001160 420.507629,256.001160 
	C420.507629,232.425446 420.507629,209.583557 420.507629,186.389999 
	C408.148621,186.389999 396.187195,186.276871 384.235168,186.559113 
	C382.993866,186.588409 381.197815,188.761215 380.688293,190.283829 
	C373.364990,212.167648 366.218414,234.110596 358.109711,256.251129 
z"/>
<path fill="#1BA5DC" opacity="1.000000" stroke="none" 
	d="
M394.985992,321.825256 
	C403.437134,321.825256 411.888245,321.825256 420.870422,321.825256 
	C420.870422,301.801300 420.870422,282.093018 420.870422,261.574432 
	C436.903046,269.926453 446.707214,282.171600 449.869904,299.001099 
	C456.181274,332.585175 431.914673,361.965363 397.707001,362.084686 
	C335.543671,362.301483 273.378998,362.162262 211.214996,362.100555 
	C207.574982,362.096954 203.941132,361.306305 200.293900,361.176086 
	C198.028809,361.095154 195.599319,361.141907 193.488907,361.856171 
	C128.265793,383.930450 60.488037,341.739868 51.930977,273.666779 
	C44.662418,215.843964 85.660645,162.620346 143.415237,154.902542 
	C202.970154,146.944168 256.200836,187.709213 264.110779,247.332352 
	C264.480072,250.115982 264.859406,252.898270 265.312225,256.261688 
	C268.581482,256.261688 271.853516,256.261688 275.565155,256.124359 
	C276.004761,255.987045 275.952393,255.962296 276.009277,256.431763 
	C276.066132,278.457611 276.066132,300.014008 276.066132,321.754395 
	C285.120300,321.754395 293.345490,321.754395 302.044312,321.754395 
	C302.044312,310.748962 302.044312,299.987823 302.044312,289.226685 
	C302.044312,278.462860 302.044312,267.699036 302.044312,256.285126 
	C306.422516,256.614441 310.176971,256.896851 313.950531,257.560547 
	C320.117249,278.100616 326.215302,298.274902 332.516479,318.385559 
	C332.968597,319.828644 334.864746,321.786316 336.158630,321.840057 
	C343.948853,322.163452 351.759247,322.000702 359.970184,322.000702 
	C367.017944,300.279724 374.025452,278.682922 381.476074,256.938110 
	C385.961151,256.814941 390.003113,256.839691 394.045074,256.864441 
	C394.049103,277.938232 394.053131,299.011993 394.098511,320.798218 
	C394.139862,321.510651 394.490265,321.863403 394.490265,321.863403 
	C394.490265,321.863403 394.985992,321.825256 394.985992,321.825256 
M204.854385,312.336212 
	C209.099792,304.677490 214.680527,297.449646 217.318878,289.272430 
	C223.220612,270.980927 222.966537,252.128357 217.656876,233.628311 
	C211.992615,213.892761 199.445923,200.275314 179.181839,195.568863 
	C170.075623,193.453903 160.344467,192.945984 150.960464,193.316971 
	C124.506676,194.362732 105.897461,208.918961 98.563606,233.445969 
	C97.141479,238.202087 96.124794,243.153168 95.588608,248.086868 
	C93.878952,263.818207 94.558403,279.417297 100.385414,294.341705 
	C107.755630,313.218689 121.522385,324.859680 141.529221,328.254059 
	C164.565094,332.162415 186.447159,330.313660 204.854385,312.336212 
z"/>
<path fill="#1FA7DD" opacity="1.000000" stroke="none" 
	d="
M276.020630,256.011292 
	C276.123474,235.082077 276.211151,214.128647 276.296417,193.175201 
	C276.304443,191.198883 276.297424,189.222488 276.297424,186.682068 
	C278.394653,186.568573 280.152039,186.396393 281.909882,186.391220 
	C291.226166,186.363815 300.549652,186.592255 309.855621,186.281265 
	C314.032806,186.141678 315.879120,187.390900 317.115509,191.537796 
	C323.470673,212.853729 330.197784,234.058777 336.905670,255.656113 
	C337.016327,256.009674 337.030914,255.954361 336.560486,255.953018 
	C328.725464,256.034698 321.360840,256.117706 313.726807,255.936188 
	C311.948853,250.802994 310.513885,245.910049 308.915222,241.071167 
	C306.264862,233.048981 303.509216,225.061584 300.859253,216.855377 
	C300.769165,216.774536 300.617767,216.897873 300.391357,217.429443 
	C300.940704,230.474670 301.565033,243.111664 302.199921,255.962296 
	C292.818359,255.962296 284.385376,255.962296 275.952393,255.962296 
	C275.952393,255.962296 276.004761,255.987045 276.020630,256.011292 
z"/>
<path fill="#1EA6DD" opacity="1.000000" stroke="none" 
	d="
M359.029358,256.039337 
	C366.218414,234.110596 373.364990,212.167648 380.688293,190.283829 
	C381.197815,188.761215 382.993866,186.588409 384.235168,186.559113 
	C396.187195,186.276871 408.148621,186.389999 420.507629,186.389999 
	C420.507629,209.583557 420.507629,232.425446 420.507629,256.001160 
	C412.057526,256.001160 403.481232,256.001160 394.483826,255.580505 
	C394.062714,242.437347 394.062714,229.714874 394.062714,217.920364 
	C389.967896,229.971649 385.510376,243.090424 380.587341,256.123993 
	C373.072510,256.010254 366.023254,255.981750 358.976990,255.981720 
	C358.980011,256.010223 359.029358,256.039337 359.029358,256.039337 
z"/>
<path fill="#24A9DE" opacity="1.000000" stroke="none" 
	d="
M336.992065,256.024841 
	C344.015106,256.110382 351.062408,256.180756 358.569519,256.145233 
	C359.029358,256.039337 358.980011,256.010223 358.855255,256.341644 
	C355.200928,267.701874 351.671356,278.730682 348.141785,289.759491 
	C347.788605,289.737244 347.435394,289.714966 347.082214,289.692719 
	C343.731781,278.446594 340.381348,267.200470 337.030914,255.954361 
	C337.030914,255.954361 337.016327,256.009674 336.992065,256.024841 
z"/>
<path fill="#F7FCFE" opacity="1.000000" stroke="none" 
	d="
M381.052887,256.209198 
	C385.510376,243.090424 389.967896,229.971649 394.062714,217.920364 
	C394.062714,229.714874 394.062714,242.437347 394.016113,255.635345 
	C393.969513,256.110840 394.020660,256.486389 394.032867,256.675415 
	C390.003113,256.839691 385.961151,256.814941 381.472076,256.718689 
	C381.024963,256.647217 381.052887,256.209198 381.052887,256.209198 
z"/>
<path fill="#F7FCFE" opacity="1.000000" stroke="none" 
	d="
M394.895447,321.653198 
	C394.985992,321.825256 394.490265,321.863403 394.490265,321.863403 
	C394.490265,321.863403 394.139862,321.510651 394.166199,321.263428 
	C394.442657,321.110657 394.646790,321.265625 394.895447,321.653198 
z"/>
<path fill="#FDFEFF" opacity="1.000000" stroke="none" 
	d="
M204.610291,312.592926 
	C186.447159,330.313660 164.565094,332.162415 141.529221,328.254059 
	C121.522385,324.859680 107.755630,313.218689 100.385414,294.341705 
	C94.558403,279.417297 93.878952,263.818207 95.588608,248.086868 
	C96.124794,243.153168 97.141479,238.202087 98.563606,233.445969 
	C105.897461,208.918961 124.506676,194.362732 150.960464,193.316971 
	C160.344467,192.945984 170.075623,193.453903 179.181839,195.568863 
	C199.445923,200.275314 211.992615,213.892761 217.656876,233.628311 
	C222.966537,252.128357 223.220612,270.980927 217.318878,289.272430 
	C214.680527,297.449646 209.099792,304.677490 204.610291,312.592926 
M191.829315,262.424438 
	C190.519791,253.748398 190.227722,244.759033 187.673950,236.466156 
	C183.308334,222.289612 173.313904,216.410599 157.280319,216.646805 
	C142.575104,216.863449 132.359589,223.745316 128.084625,237.175842 
	C123.002495,253.142242 123.013283,269.352783 128.037125,285.329437 
	C132.416412,299.256317 142.979767,306.136993 158.606583,306.063385 
	C173.763657,305.992004 184.277603,298.916168 188.283691,284.935394 
	C190.277710,277.976501 190.680328,270.561646 191.829315,262.424438 
z"/>
<path fill="#FDFEFF" opacity="1.000000" stroke="none" 
	d="
M380.587341,256.123993 
	C381.052887,256.209198 381.024963,256.647217 381.028931,256.866638 
	C374.025452,278.682922 367.017944,300.279724 359.970184,322.000702 
	C351.759247,322.000702 343.948853,322.163452 336.158630,321.840057 
	C334.864746,321.786316 332.968597,319.828644 332.516479,318.385559 
	C326.215302,298.274902 320.117249,278.100616 313.971558,257.316162 
	C313.973480,256.690521 313.996246,256.200745 313.996246,256.200745 
	C321.360840,256.117706 328.725464,256.034698 336.560486,255.953018 
	C340.381348,267.200470 343.731781,278.446594 347.082214,289.692719 
	C347.435394,289.714966 347.788605,289.737244 348.141785,289.759491 
	C351.671356,278.730682 355.200928,267.701874 358.852234,256.313141 
	C366.023254,255.981750 373.072510,256.010254 380.587341,256.123993 
z"/>
<path fill="#FBFEFE" opacity="1.000000" stroke="none" 
	d="
M313.726807,255.936188 
	C313.996246,256.200745 313.973480,256.690521 313.952454,256.934875 
	C310.176971,256.896851 306.422516,256.614441 302.044312,256.285126 
	C302.044312,267.699036 302.044312,278.462860 302.044312,289.226685 
	C302.044312,299.987823 302.044312,310.748962 302.044312,321.754395 
	C293.345490,321.754395 285.120300,321.754395 276.066132,321.754395 
	C276.066132,300.014008 276.066132,278.457611 276.009277,256.431763 
	C284.385376,255.962296 292.818359,255.962296 302.199921,255.962296 
	C301.565033,243.111664 300.940704,230.474670 300.474487,217.436722 
	C300.632599,217.035751 300.797913,217.059540 300.797913,217.059540 
	C303.509216,225.061584 306.264862,233.048981 308.915222,241.071167 
	C310.513885,245.910049 311.948853,250.802994 313.726807,255.936188 
z"/>
<path fill="#F6FCFE" opacity="1.000000" stroke="none" 
	d="
M300.859253,216.855377 
	C300.797913,217.059540 300.632599,217.035751 300.549469,217.028473 
	C300.617767,216.897873 300.769165,216.774536 300.859253,216.855377 
z"/>
<path fill="#1BA6DC" opacity="1.000000" stroke="none" 
	d="
M191.816071,262.888733 
	C190.680328,270.561646 190.277710,277.976501 188.283691,284.935394 
	C184.277603,298.916168 173.763657,305.992004 158.606583,306.063385 
	C142.979767,306.136993 132.416412,299.256317 128.037125,285.329437 
	C123.013283,269.352783 123.002495,253.142242 128.084625,237.175842 
	C132.359589,223.745316 142.575104,216.863449 157.280319,216.646805 
	C173.313904,216.410599 183.308334,222.289612 187.673950,236.466156 
	C190.227722,244.759033 190.519791,253.748398 191.816071,262.888733 
z"/>
</svg>